<svg width="327" height="327" viewBox="0 0 327 327" fill="none" xmlns="http://www.w3.org/2000/svg">
<path d="M181.707 183.858C177.838 183.858 173.914 183.949 169.953 184.139C165.993 195.657 165.702 209.091 169.953 230.437C172.933 245.388 194.106 287.653 211.591 302.495C217.795 307.763 226.47 310.525 236.025 310.525C255.5 310.525 278.635 299.034 291.951 273.883C319.211 222.371 260.396 183.858 181.707 183.858Z" fill="#1C6399"/>
<path d="M305.804 17.8828C303.951 17.8828 301.944 18.0736 299.782 18.4823C270.879 23.9414 215.289 65.0435 170.008 125.402C170.008 125.402 162.841 172.272 162.841 181.664C162.841 184.716 174.323 186.206 190.618 186.206C224.381 186.206 278.808 179.802 294.386 167.667C311.626 154.233 327.54 78.614 326.069 39.7827C325.651 29.1098 320.056 17.8828 305.804 17.8828Z" fill="#1C6399"/>
<path d="M246.147 126.546L306.36 122.586C306.36 122.586 296.777 155.458 278.184 164.878C259.59 174.297 208.07 178.503 208.07 178.503C208.07 178.503 229.234 139.799 237.917 130.452C240.07 128.127 242.995 126.746 246.147 126.546ZM250.87 108.816L319.231 34.7773C319.231 34.7773 319.25 83.5094 308.277 113.212C308.277 113.212 259.381 116.654 254.558 116.763C248.173 116.909 245.756 114.356 250.87 108.816ZM195.753 178.503L245.711 100.868C246.553 99.8842 247.136 98.7062 247.407 97.4404C247.678 96.1746 247.629 94.8611 247.264 93.6191L238.472 64.2527L177.413 124.284L169.747 179.066L195.753 178.503ZM253.087 80.6209C254.649 84.3087 257.774 85.1626 261.607 81.7563C265.44 78.3501 316.779 26.4025 316.107 25.2761C316.107 25.2761 290.383 14.4306 245.257 56.7317C245.257 56.7317 251.524 76.9331 253.087 80.6209ZM172.018 190.52L220.823 238.008C221.717 238.792 222.316 239.857 222.523 241.028C222.729 242.199 222.53 243.406 221.958 244.448L200.385 283.815C200.385 283.815 162.353 234.047 172.018 190.52ZM238.163 247.754L288.566 254.485C288.566 254.485 278.956 289.41 257.737 298.575C222.258 313.908 209.487 292.898 209.487 292.898L230.851 251.46C231.516 250.144 232.584 249.075 233.899 248.408C235.214 247.742 236.708 247.513 238.163 247.754ZM184.117 189.385L232.94 234.42C233.639 235.019 234.475 235.419 235.383 235.592L290.964 243.794C290.964 243.794 279.892 216.262 250.734 202.637C217.035 186.896 184.117 189.385 184.117 189.385Z" fill="#55ACEE"/>
<path d="M181.707 183.858C177.838 183.858 173.914 183.949 169.953 184.139C165.993 195.657 165.702 209.091 169.953 230.437C172.933 245.388 194.106 287.653 211.591 302.495C217.795 307.763 226.47 310.525 236.025 310.525C255.5 310.525 278.635 299.034 291.951 273.883C319.211 222.371 260.396 183.858 181.707 183.858ZM277.418 268.569C265.464 291.15 249.714 300.115 236.016 300.115C229.049 300.115 220.538 297.272 216.487 293.839C201.091 280.768 185.268 252.237 177.883 228.221C173.659 214.478 174.667 191.687 174.667 191.687L180.726 191.497C227.669 191.497 264.738 210.19 278.154 232.481C284.639 243.254 284.394 255.398 277.418 268.569Z" fill="#292F33"/>
<path d="M305.804 29.237C307.902 29.237 314.297 29.237 314.715 40.2096C315.641 64.5621 309.319 95.2637 302.025 120.888C297.111 138.155 287.619 150.79 283.005 154.378C277.918 158.338 266.083 165.623 249.224 168.575C230.785 171.8 211.01 176.142 190.582 176.142C183.07 176.142 177.565 176.314 174.286 175.951C175.476 164.887 178.728 143.696 180.799 129.953C215.025 85.0813 269.007 35.8406 301.889 29.6366C303.297 29.3732 304.614 29.237 305.804 29.237ZM305.804 17.8828C303.951 17.8828 301.944 18.0736 299.782 18.4823C270.879 23.9414 215.289 65.0435 170.008 125.402C170.008 125.402 162.841 172.272 162.841 181.664C162.841 184.716 174.323 186.206 190.618 186.206C224.381 186.206 278.808 179.802 294.386 167.667C311.626 154.233 327.54 78.614 326.069 39.7827C325.651 29.1098 320.056 17.8828 305.804 17.8828Z" fill="#292F33"/>
<path d="M35.4497 273.883C48.7659 299.034 71.892 310.525 91.3758 310.525C100.931 310.525 109.606 307.763 115.81 302.495C133.295 287.662 154.469 245.397 157.448 230.437C161.699 209.091 161.408 195.666 157.448 184.139C153.533 183.951 149.614 183.857 145.694 183.858C66.987 183.858 8.18154 222.371 35.4497 273.883Z" fill="#1C6399"/>
<path d="M21.5879 17.8828C7.33617 17.8828 1.73176 29.1098 1.33209 39.7736C-0.139409 78.6049 15.7746 154.233 33.0148 167.658C48.5927 179.793 103.011 186.197 136.783 186.197C153.078 186.197 164.56 184.707 164.56 181.655C164.56 172.272 157.393 125.393 157.393 125.393C112.103 65.0435 56.5043 23.9414 27.6102 18.4823C25.6258 18.0954 23.6096 17.8947 21.5879 17.8828Z" fill="#1C6399"/>
<path d="M81.2384 126.546L21.0341 122.586C21.0341 122.586 30.617 155.458 49.2106 164.878C67.8042 174.297 119.325 178.503 119.325 178.503C119.325 178.503 98.1607 139.799 89.477 130.452C87.3378 128.136 84.3858 126.736 81.2384 126.546ZM76.5242 108.816L8.16303 34.7773C8.16303 34.7773 8.14486 83.5094 19.1175 113.212C19.1175 113.212 68.0131 116.654 72.8364 116.763C79.2219 116.909 81.6381 114.356 76.5242 108.816ZM131.642 178.503L81.6835 100.868C80.8417 99.8842 80.2587 98.7062 79.9875 97.4404C79.7162 96.1746 79.7653 94.8611 80.1303 93.6191L88.9229 64.2527L149.981 124.284L157.647 179.066L131.642 178.503ZM74.2988 80.6209C72.7365 84.3087 69.6118 85.1626 65.7786 81.7563C61.9454 78.3501 10.6064 26.4025 11.2786 25.2761C11.2786 25.2761 37.0026 14.4306 82.1286 56.7317C82.1377 56.7317 75.8611 76.9331 74.2988 80.6209ZM155.377 190.52L106.572 238.008C105.678 238.792 105.078 239.857 104.872 241.028C104.665 242.199 104.864 243.406 105.436 244.448L127.009 283.806C127 283.815 165.041 234.047 155.377 190.52ZM89.2227 247.754L38.8193 254.485C38.8193 254.485 48.4294 289.41 69.6481 298.575C105.128 313.908 117.899 292.898 117.899 292.898L96.5348 251.46C95.8719 250.142 94.8043 249.071 93.4884 248.404C92.1725 247.737 90.6775 247.51 89.2227 247.754ZM143.278 189.385L94.4547 234.42C93.757 235.018 92.9144 235.422 92.0113 235.592L36.4304 243.794C36.4304 243.794 47.5029 216.262 76.6604 202.637C110.351 186.896 143.278 189.385 143.278 189.385Z" fill="#55ACEE"/>
<path d="M35.4497 273.883C48.7659 299.034 71.892 310.525 91.3758 310.525C100.931 310.525 109.606 307.763 115.81 302.495C133.295 287.662 154.469 245.397 157.448 230.437C161.699 209.091 161.408 195.666 157.448 184.139C153.533 183.951 149.614 183.857 145.694 183.858C66.987 183.858 8.18154 222.371 35.4497 273.883ZM49.2382 232.472C62.6543 210.181 99.7234 191.488 146.666 191.488L152.725 191.678C152.725 191.678 153.733 214.478 149.509 228.212C142.124 252.228 126.301 280.759 110.905 293.83C106.854 297.272 98.3427 300.106 91.3758 300.106C77.6781 300.106 61.9276 291.15 49.974 268.56C42.998 255.398 42.7527 243.254 49.2382 232.472Z" fill="#292F33"/>
<path d="M21.5879 29.237C22.7778 29.237 24.0949 29.3732 25.5028 29.6366C58.3754 35.8406 112.367 85.0813 146.593 129.953C148.664 143.696 151.916 164.887 153.106 175.951C149.826 176.314 144.322 176.142 136.81 176.142C116.382 176.142 96.6072 171.8 78.168 168.575C61.3093 165.623 49.4738 158.338 44.3871 154.378C39.7728 150.781 30.2807 138.155 25.3666 120.888C18.0727 95.2637 11.7507 64.5621 12.6772 40.2096C13.095 29.237 19.4806 29.237 21.5879 29.237ZM21.5879 17.8828C7.33617 17.8828 1.73176 29.1098 1.33209 39.7736C-0.139409 78.6049 15.7746 154.233 33.0148 167.658C48.5927 179.793 103.011 186.197 136.783 186.197C153.078 186.197 164.56 184.707 164.56 181.655C164.56 172.272 157.393 125.393 157.393 125.393C112.103 65.0435 56.5043 23.9414 27.6102 18.4823C25.6258 18.0954 23.6096 17.8947 21.5879 17.8828Z" fill="#292F33"/>
<path d="M198.815 43.2171C198.276 42.9188 197.684 42.7299 197.072 42.6611C196.46 42.5924 195.84 42.6452 195.248 42.8165C194.657 42.9878 194.105 43.2743 193.624 43.6595C193.144 44.0446 192.744 44.5209 192.448 45.061L167.559 90.296C167.396 90.5958 167.36 90.9137 167.269 91.2225C166.115 91.1589 165.052 91.059 163.699 91.059C162.355 91.059 161.283 91.1498 160.138 91.2225C160.047 90.9137 160.011 90.5958 159.848 90.296L134.959 45.061C134.359 43.9709 133.351 43.1638 132.156 42.8171C130.961 42.4705 129.677 42.6127 128.587 43.2126C127.497 43.8124 126.69 44.8207 126.343 46.0157C125.997 47.2107 126.139 48.4944 126.739 49.5845L150.855 93.4207C140.146 100.542 161.301 124.649 154.316 177.024C144.933 247.42 163.699 266.195 163.699 266.195C163.699 266.195 182.474 247.42 173.082 177.024C166.097 124.649 187.252 100.542 176.543 93.4207L200.668 49.5845C200.965 49.0448 201.152 48.4519 201.22 47.8398C201.287 47.2276 201.233 46.6081 201.061 46.0168C200.889 45.4254 200.602 44.8738 200.217 44.3934C199.831 43.913 199.355 43.5133 198.815 43.2171Z" fill="#292F33"/>
</svg>
